<svg xmlns="http://www.w3.org/2000/svg" xmlns:xlink="http://www.w3.org/1999/xlink" viewBox="0 0 3710 3710"><defs><style>.cls-1,.cls-10,.cls-35,.cls-6{fill:#fff;}.cls-2{fill:url(#linear-gradient);}.cls-3{fill:#bdd0fb;}.cls-4{fill:url(#linear-gradient-2);}.cls-5{fill:#91b3fa;}.cls-6{opacity:0.57;}.cls-7{fill:url(#linear-gradient-3);}.cls-8{fill:url(#linear-gradient-4);}.cls-9{fill:url(#linear-gradient-5);}.cls-10{opacity:0.17;}.cls-11{opacity:0.4;}.cls-12{fill:#7d97f4;}.cls-13{fill:url(#linear-gradient-6);}.cls-14{fill:url(#linear-gradient-7);}.cls-15{fill:url(#linear-gradient-8);}.cls-16{fill:url(#linear-gradient-9);}.cls-17{fill:url(#linear-gradient-10);}.cls-18{fill:url(#linear-gradient-11);}.cls-19{fill:url(#linear-gradient-12);}.cls-20{fill:url(#linear-gradient-13);}.cls-21{fill:url(#linear-gradient-14);}.cls-22{fill:url(#linear-gradient-15);}.cls-23{fill:url(#linear-gradient-16);}.cls-24{fill:url(#linear-gradient-17);}.cls-25{fill:url(#linear-gradient-18);}.cls-26{fill:url(#linear-gradient-19);}.cls-27{fill:url(#linear-gradient-20);}.cls-28{fill:url(#linear-gradient-21);}.cls-29{fill:url(#linear-gradient-22);}.cls-30{fill:url(#linear-gradient-23);}.cls-31{fill:url(#linear-gradient-24);}.cls-32{fill:url(#linear-gradient-25);}.cls-33{fill:url(#linear-gradient-26);}.cls-34{fill:url(#linear-gradient-27);}.cls-35{opacity:0.78;}.cls-36{fill:url(#linear-gradient-28);}.cls-37{fill:url(#linear-gradient-29);}.cls-38{fill:url(#linear-gradient-30);}.cls-39{fill:url(#linear-gradient-31);}.cls-40{fill:url(#linear-gradient-32);}.cls-41{fill:url(#linear-gradient-33);}.cls-42{fill:url(#linear-gradient-34);}.cls-43{fill:url(#linear-gradient-35);}.cls-44{fill:url(#linear-gradient-36);}.cls-45{fill:url(#linear-gradient-37);}.cls-46{fill:url(#linear-gradient-38);}.cls-47{fill:url(#linear-gradient-39);}.cls-48{fill:url(#linear-gradient-40);}.cls-49{fill:url(#linear-gradient-41);}.cls-50{fill:url(#linear-gradient-42);}.cls-51{fill:url(#linear-gradient-43);}.cls-52{fill:url(#linear-gradient-44);}.cls-53{fill:url(#linear-gradient-45);}.cls-54{fill:url(#linear-gradient-46);}.cls-55{fill:url(#linear-gradient-47);}.cls-56{fill:url(#linear-gradient-48);}.cls-57{fill:url(#linear-gradient-49);}.cls-58{fill:url(#linear-gradient-50);}.cls-59{fill:url(#linear-gradient-51);}.cls-60{fill:url(#linear-gradient-52);}.cls-61{fill:url(#linear-gradient-53);}.cls-62{fill:url(#linear-gradient-54);}.cls-63{fill:url(#linear-gradient-55);}.cls-64{fill:url(#linear-gradient-56);}.cls-65{fill:url(#linear-gradient-57);}.cls-66{fill:url(#linear-gradient-58);}.cls-67{fill:url(#linear-gradient-59);}.cls-68{fill:url(#linear-gradient-60);}.cls-69{fill:url(#linear-gradient-61);}.cls-70{fill:url(#linear-gradient-62);}.cls-71{fill:url(#linear-gradient-63);}</style><linearGradient id="linear-gradient" x1="3499.89" y1="3692.56" x2="1524.59" y2="1589.83" gradientUnits="userSpaceOnUse"><stop offset="0" stop-color="#dae3fe"/><stop offset="1" stop-color="#e9effd"/></linearGradient><linearGradient id="linear-gradient-2" x1="-2576.17" y1="954.03" x2="-2103.19" y2="954.03" gradientTransform="matrix(-0.96, -0.27, -0.27, 0.96, -686.85, 45.87)" xlink:href="#linear-gradient"/><linearGradient id="linear-gradient-3" x1="1675.1" y1="2713.68" x2="2282.25" y2="892.21" gradientUnits="userSpaceOnUse"><stop offset="0" stop-color="#09005d"/><stop offset="1" stop-color="#1a0f91"/></linearGradient><linearGradient id="linear-gradient-4" x1="662.35" y1="2036.08" x2="672.43" y2="2036.08" xlink:href="#linear-gradient"/><linearGradient id="linear-gradient-5" x1="653.91" y1="1560.26" x2="1533.61" y2="1560.26" xlink:href="#linear-gradient"/><linearGradient id="linear-gradient-6" x1="839.01" y1="2261.46" x2="857.46" y2="2261.46" gradientUnits="userSpaceOnUse"><stop offset="0" stop-color="#4f52ff"/><stop offset="1" stop-color="#4042e2"/></linearGradient><linearGradient id="linear-gradient-7" x1="902.28" y1="2064.69" x2="770.14" y2="2508.38" xlink:href="#linear-gradient-6"/><linearGradient id="linear-gradient-8" x1="1084.59" y1="2347.45" x2="1102.35" y2="2347.45" xlink:href="#linear-gradient-6"/><linearGradient id="linear-gradient-9" x1="1124.85" y1="2220.7" x2="1037.95" y2="2512.53" xlink:href="#linear-gradient-6"/><linearGradient id="linear-gradient-10" x1="1319.4" y1="2289.6" x2="1336.5" y2="2289.6" xlink:href="#linear-gradient-6"/><linearGradient id="linear-gradient-11" x1="1387.7" y1="2088.35" x2="1231.65" y2="2612.36" xlink:href="#linear-gradient-6"/><linearGradient id="linear-gradient-12" x1="1550.75" y1="2244.28" x2="1569.18" y2="2244.28" xlink:href="#linear-gradient-6"/><linearGradient id="linear-gradient-13" x1="1589.88" y1="2129.85" x2="1526.09" y2="2344.07" xlink:href="#linear-gradient-6"/><linearGradient id="linear-gradient-14" x1="1799.86" y1="1816.36" x2="1817.93" y2="1816.36" xlink:href="#linear-gradient-6"/><linearGradient id="linear-gradient-15" x1="1861.86" y1="1631.09" x2="1725.48" y2="2089.05" xlink:href="#linear-gradient-6"/><linearGradient id="linear-gradient-16" x1="2036.05" y1="1988.83" x2="2053.06" y2="1988.83" xlink:href="#linear-gradient-6"/><linearGradient id="linear-gradient-17" x1="2113.46" y1="1756.3" x2="1949.95" y2="2305.35" xlink:href="#linear-gradient-6"/><linearGradient id="linear-gradient-18" x1="2275.85" y1="1992.81" x2="2292.3" y2="1992.81" xlink:href="#linear-gradient-6"/><linearGradient id="linear-gradient-19" x1="2331.32" y1="1906.31" x2="2220.3" y2="2279.11" xlink:href="#linear-gradient-6"/><linearGradient id="linear-gradient-20" x1="2515.84" y1="1628.39" x2="2534.47" y2="1628.39" xlink:href="#linear-gradient-6"/><linearGradient id="linear-gradient-21" x1="2589.27" y1="1485.62" x2="2433.05" y2="2010.19" xlink:href="#linear-gradient-6"/><linearGradient id="linear-gradient-22" x1="2755.52" y1="1938.48" x2="2774.1" y2="1938.48" xlink:href="#linear-gradient-6"/><linearGradient id="linear-gradient-23" x1="2816.44" y1="1829.42" x2="2690.52" y2="2252.24" xlink:href="#linear-gradient-6"/><linearGradient id="linear-gradient-24" x1="2998.59" y1="1534.24" x2="3017.65" y2="1534.24" xlink:href="#linear-gradient-6"/><linearGradient id="linear-gradient-25" x1="3044.11" y1="1379.77" x2="2956.12" y2="1675.23" xlink:href="#linear-gradient-6"/><linearGradient id="linear-gradient-26" x1="2897.33" y1="189.67" x2="2588.71" y2="770.91" gradientTransform="translate(1566.41 -1285.94) rotate(45)" gradientUnits="userSpaceOnUse"><stop offset="0" stop-color="#e1473d"/><stop offset="1" stop-color="#e9605a"/></linearGradient><linearGradient id="linear-gradient-27" x1="2388.65" y1="763.09" x2="2254.91" y2="1982.15" gradientTransform="translate(1566.41 -1285.94) rotate(45)" gradientUnits="userSpaceOnUse"><stop offset="0" stop-color="#ff928e"/><stop offset="1" stop-color="#fe7062"/></linearGradient><linearGradient id="linear-gradient-28" x1="2484.07" y1="875.66" x2="2252.6" y2="1528.92" gradientTransform="matrix(1, 0, 0, 1, 0, 0)" xlink:href="#linear-gradient-27"/><linearGradient id="linear-gradient-29" x1="1082.63" y1="3128.56" x2="586.01" y2="3668.74" xlink:href="#linear-gradient-3"/><linearGradient id="linear-gradient-30" x1="921.43" y1="3168.68" x2="965.54" y2="3168.68" gradientUnits="userSpaceOnUse"><stop offset="0" stop-color="#febbba"/><stop offset="1" stop-color="#ff928e"/></linearGradient><linearGradient id="linear-gradient-31" x1="816.83" y1="2831.39" x2="962.69" y2="2831.39" xlink:href="#linear-gradient-3"/><linearGradient id="linear-gradient-32" x1="971.22" y1="3026.14" x2="474.61" y2="3566.31" xlink:href="#linear-gradient-3"/><linearGradient id="linear-gradient-33" x1="762.45" y1="3166.42" x2="800.54" y2="3166.42" xlink:href="#linear-gradient-30"/><linearGradient id="linear-gradient-34" x1="721.4" y1="2826.62" x2="928.47" y2="2826.62" xlink:href="#linear-gradient-3"/><linearGradient id="linear-gradient-35" x1="2027.79" y1="1034.09" x2="1631.73" y2="1455.87" gradientTransform="matrix(1, 0, 0, 1, 0, 0)" xlink:href="#linear-gradient-27"/><linearGradient id="linear-gradient-36" x1="1102.95" y1="2017.86" x2="1328.31" y2="2017.86" xlink:href="#linear-gradient-30"/><linearGradient id="linear-gradient-37" x1="9169.67" y1="1980.09" x2="9320.89" y2="2324.15" gradientTransform="matrix(-1, 0, 0, 1, 10447.78, 0)" xlink:href="#linear-gradient-30"/><linearGradient id="linear-gradient-38" x1="1327.23" y1="1865.5" x2="1390.33" y2="1768.49" xlink:href="#linear-gradient-30"/><linearGradient id="linear-gradient-39" x1="1910.21" y1="923.68" x2="1514.15" y2="1345.46" gradientTransform="matrix(1, 0, 0, 1, 0, 0)" xlink:href="#linear-gradient-27"/><linearGradient id="linear-gradient-40" x1="609.82" y1="2337.08" x2="895.01" y2="2337.08" xlink:href="#linear-gradient-30"/><linearGradient id="linear-gradient-41" x1="981.29" y1="2134.31" x2="1138.11" y2="2787.72" xlink:href="#linear-gradient-3"/><linearGradient id="linear-gradient-42" x1="873.84" y1="2307.17" x2="962.69" y2="2307.17" xlink:href="#linear-gradient-30"/><linearGradient id="linear-gradient-43" x1="828.81" y1="2032.19" x2="941.57" y2="2032.19" xlink:href="#linear-gradient-30"/><linearGradient id="linear-gradient-44" x1="-4942.44" y1="-707.16" x2="-4984.57" y2="-846.13" gradientTransform="matrix(0.75, -0.67, 0.67, 0.75, 5126.34, -803.17)" xlink:href="#linear-gradient-30"/><linearGradient id="linear-gradient-45" x1="-4980.45" y1="-949.3" x2="-4945.2" y2="-748.26" gradientTransform="matrix(0.75, -0.67, 0.67, 0.75, 5126.34, -803.17)" xlink:href="#linear-gradient-3"/><linearGradient id="linear-gradient-46" x1="-4985.51" y1="-707.8" x2="-5023.42" y2="-832.84" gradientTransform="matrix(0.75, -0.67, 0.67, 0.75, 5126.34, -803.17)" xlink:href="#linear-gradient-30"/><linearGradient id="linear-gradient-47" x1="2890.12" y1="2628.19" x2="2528.99" y2="4019.23" xlink:href="#linear-gradient-3"/><linearGradient id="linear-gradient-48" x1="2927.51" y1="2613.42" x2="2551.62" y2="4061.32" xlink:href="#linear-gradient-3"/><linearGradient id="linear-gradient-49" x1="2857.13" y1="2619.62" x2="2495.99" y2="4010.67" xlink:href="#linear-gradient-3"/><linearGradient id="linear-gradient-50" x1="2519.94" y1="2945.4" x2="2692.13" y2="2945.4" xlink:href="#linear-gradient-30"/><linearGradient id="linear-gradient-51" x1="2625.3" y1="3057.6" x2="2599.97" y2="3445.92" xlink:href="#linear-gradient-6"/><linearGradient id="linear-gradient-52" x1="2317.77" y1="2957.16" x2="2681.12" y2="2957.16" xlink:href="#linear-gradient-30"/><linearGradient id="linear-gradient-53" x1="2798.69" y1="2543.05" x2="2618.66" y2="3340.33" xlink:href="#linear-gradient-6"/><linearGradient id="linear-gradient-54" x1="2380.91" y1="3041.66" x2="2355.58" y2="3429.99" xlink:href="#linear-gradient-6"/><linearGradient id="linear-gradient-55" x1="3790.51" y1="663.93" x2="3481.88" y2="1245.17" gradientTransform="matrix(1, 0, 0, 1, 0, 0)" xlink:href="#linear-gradient-27"/><linearGradient id="linear-gradient-56" x1="2725.88" y1="2458.48" x2="2707.71" y2="2341.87" xlink:href="#linear-gradient-30"/><linearGradient id="linear-gradient-57" x1="2647.33" y1="2238.71" x2="2807.87" y2="2347.75" xlink:href="#linear-gradient-30"/><linearGradient id="linear-gradient-58" x1="2927.5" y1="2033.86" x2="2658.24" y2="2314" xlink:href="#linear-gradient-3"/><linearGradient id="linear-gradient-59" x1="2656.95" y1="2224.54" x2="2817.49" y2="2333.59" xlink:href="#linear-gradient-30"/><linearGradient id="linear-gradient-60" x1="2830.22" y1="2660.4" x2="3171.54" y2="2660.4" xlink:href="#linear-gradient-30"/><linearGradient id="linear-gradient-61" x1="3047.18" y1="2148.89" x2="2777.92" y2="2429.03" xlink:href="#linear-gradient-3"/><linearGradient id="linear-gradient-62" x1="2742.2" y1="2819.13" x2="2527.33" y2="2878.02" gradientTransform="translate(-41.47 -55.03) rotate(-2.83)" xlink:href="#linear-gradient-3"/><linearGradient id="linear-gradient-63" x1="2545.89" y1="2486.45" x2="2393.44" y2="2647.58" xlink:href="#linear-gradient-3"/></defs><g id="Background"><rect class="cls-1" width="3710" height="3710"/></g><g id="Illustration"><path class="cls-2" d="M2906.81,2849c-72.92,75.17-138.17,119.35-188.12,152.7-487.2,325.31-1044.12,231.55-1216.31,199.5-277.8-51.7-512.3-88.18-713.78-270.21C330.78,2517.32,353,1654.47,702.88,1120c41.48-63.38,390.78-581.15,948.9-654.11,13.66-1.79,23.84-2.8,32.76-3.75,86.34-9.14,621.38-57.38,1057.65,308.12,62.45,52.32,162.95,146.69,256.15,290.63C3339.1,1587.15,3340.18,2402.25,2906.81,2849Z"/><path class="cls-3" d="M1766.13,1785.88c11.12-182.23-38.55-350.19-127.13-472-79.19-108.9-114.32-244.22-95.29-377.38q3-21,4.33-42.71c13.38-219.16-110.06-405-275.71-415.12S961.56,638,948.19,857.19a514.26,514.26,0,0,0,8.17,129c25.23,130.2,2.47,265.78-68.51,377.87-63.44,100.18-104.71,224.69-113.05,361.31-12.43,203.76,51.14,389.69,160.13,513.21a510,510,0,0,1,95.58,159c36.13,96.95,113.17,165.85,206.16,171.52,100.33,6.12,191.15-63.05,236-167.48,25.4-59.09,62.11-112.43,106.42-159.12C1683.73,2132.32,1754.89,1970.12,1766.13,1785.88Z"/><path class="cls-4" d="M1316.11,715.35c12.8,146.16,20.89,292.61,27.46,439.15,1.66,36.63,2.73,73.29,3.91,109.94l1.77,55,1.31,55c.74,36.67,2,73.33,2.29,110l1,110c-.3,73.36,0,146.71-1.64,220.06-.78,36.67-.84,73.35-2.36,110l-4.07,110c-6.9,146.56-17.48,293-35.46,438.66l-6.28-.71,9.3-109.48,2.38-27.35,1.7-27.42,3.3-54.83,3.4-54.81c1.16-18.27,1.65-36.58,2.51-54.87,1.48-36.59,3.24-73.16,4.48-109.76,4-146.42,6.07-292.89,5.12-439.39-1-73.25-1.45-146.49-3-219.74l-1-54.93-1.47-54.93c-1-36.61-1.92-73.23-3.25-109.84q-3-109.86-7.74-219.67c-2.77-73.22-6.23-146.43-9.92-219.6Z"/><path class="cls-5" d="M1284.19,1558.57c-15.6-156.41-80.78-292.36-172.62-383.74-82.1-81.69-130.46-191.88-132.63-307.68q-.33-18.25-2.18-36.9C958,642.14,827.81,501.11,686,515.25S444.37,693.36,463.14,881.48A443.52,443.52,0,0,0,487.78,990c39.28,107.2,38.6,225.56-6.18,330.58-40,93.86-57.93,205.35-46.23,322.62,17.44,174.9,96.88,324.22,206.25,414.24a439.12,439.12,0,0,1,102.89,122c44,77.44,118.72,125.43,198.35,117.49,85.9-8.57,153.41-79.83,177.12-174.76,13.42-53.71,37.21-104.08,68.37-149.85C1261.91,1864.35,1300,1716.71,1284.19,1558.57Z"/><path class="cls-6" d="M755.6,710.42c30.93,122.47,57.91,245.85,83.6,369.5,6.43,30.91,12.38,61.92,18.42,92.91l9,46.49,8.66,46.56c5.66,31.06,11.74,62,17,93.18l15.92,93.38c9.83,62.4,20.18,124.7,28.84,187.27,4.38,31.28,9.36,62.47,13.1,93.84l11.66,94c14.28,125.52,25.42,251.47,30.18,377.72l-5.42.26-7.15-94.33-1.74-23.58-2.32-23.53-4.74-47.06L966.07,1970c-1.52-15.69-3.63-31.32-5.41-47-3.77-31.3-7.3-62.63-11.27-93.91-16.72-125-35.08-249.78-56-374.17-10.94-62.12-21.35-124.32-32.72-186.36l-8.4-46.56-8.79-46.48c-5.84-31-11.69-62-17.84-92.92Q808,989.67,788.88,897c-12.4-61.86-25.39-123.61-38.57-185.3Z"/><path class="cls-7" d="M3242.82,2779.76a47.65,47.65,0,0,1-47.54,47.49H624.54A47.65,47.65,0,0,1,577,2779.76L555.61,1302.42c0-26.12,30.77-77.12,87.17-73.29l2512.42-65a119.81,119.81,0,0,1,122.93,122.53Z"/><path class="cls-5" d="M3195.89,2734.19a45.11,45.11,0,0,1-45,45H686.53a45.1,45.1,0,0,1-45-45L621.37,1393.05c2.38-80.7,73.13-109.71,116-108l2408-64.6a84.07,84.07,0,0,1,86.31,86.16Z"/><path class="cls-8" d="M668.19,2094.71a4.24,4.24,0,0,1-4.24-4.19l-1.6-108.76a4.25,4.25,0,1,1,8.49-.13l1.59,108.77a4.24,4.24,0,0,1-4.18,4.31Z"/><path class="cls-9" d="M664.27,1828.18A4.25,4.25,0,0,1,660,1824l-6.12-416.56c.13-28,8.77-50.38,25.67-66.57,30.71-29.43,78.73-27.95,80.75-27.87l768.92-20.64a4.17,4.17,0,0,1,4.36,4.13,4.26,4.26,0,0,1-4.13,4.36l-769.17,20.63c-2.18-.09-46.72-1.45-74.86,25.52-15.18,14.54-22.93,34.86-23.05,60.4l6.12,416.48a4.26,4.26,0,0,1-4.18,4.31Z"/><path class="cls-10" d="M750.13,2659.79c2.58-110.85,1.62-1092.42-4.74-1177.19s125.67-100.68,328.37-110.22,1913-47.31,1957-50.88c99-8,119.47,139.92,109.57,461.11-7.44,241.31-19.78,638.82-25.45,821.63A100.88,100.88,0,0,1,3014.28,2702c-411.56,1.13-1989,5.65-2094,8.78C799.45,2714.38,749.1,2703.74,750.13,2659.79Z"/><g class="cls-11"><rect class="cls-1" x="776.92" y="2347.15" width="143.32" height="331.05"/><rect class="cls-1" x="1016.4" y="2055.05" width="143.32" height="623.14"/><rect class="cls-1" x="1255.89" y="2333.74" width="143.32" height="344.46"/><rect class="cls-1" x="1495.37" y="2163.85" width="143.32" height="514.35"/><rect class="cls-1" x="1734.85" y="2203.88" width="143.32" height="474.32"/><rect class="cls-1" x="1974.33" y="2156.05" width="143.32" height="522.15"/><rect class="cls-1" x="2213.81" y="1820.91" width="143.32" height="857.29"/><rect class="cls-1" x="2453.29" y="1967.15" width="143.32" height="711.05"/><rect class="cls-1" x="2692.78" y="2122.57" width="143.32" height="555.62"/><rect class="cls-1" x="2932.26" y="1733.25" width="143.32" height="944.95"/></g><path class="cls-12" d="M3008.13,1798.4c5.26.06,9.52.59,9.52,1.18v306.91c0,.59-4.26,1.11-9.52,1.16s-9.54-.39-9.54-1V1799.35C2998.59,1798.76,3002.86,1798.34,3008.13,1798.4Z"/><polygon class="cls-12" points="2930.91 1572.14 3077.93 1574.16 3077.93 1886.65 2930.91 1887.88 2930.91 1572.14"/><path class="cls-12" d="M2764.83,1769.38c5.13.08,9.28.52,9.28,1v237.84c0,.46-4.15.83-9.28.84s-9.3-.35-9.3-.8V1770.06C2755.53,1769.6,2759.7,1769.3,2764.83,1769.38Z"/><polygon class="cls-12" points="2692.78 1704.74 2836.11 1707.45 2836.11 1892.06 2692.78 1891.33 2692.78 1704.74"/><path class="cls-12" d="M2525.16,2129.79c5.14,0,9.31.38,9.31.81v227.89c0,.43-4.17.85-9.31.93s-9.32-.22-9.32-.66v-228.2C2515.84,2130.12,2520,2129.78,2525.16,2129.79Z"/><polygon class="cls-12" points="2452.89 1866.2 2596.59 1865.32 2596.59 2138.52 2452.89 2142.42 2452.89 1866.2"/><path class="cls-12" d="M2285,1853.24c4.61,0,8.34.35,8.34.78v223.62c0,.43-3.73.85-8.34.94s-8.35-.19-8.35-.62V1854C2276.68,1853.59,2280.42,1853.24,2285,1853.24Z"/><polygon class="cls-12" points="2213.81 1783.88 2357.14 1782.67 2357.14 1962.58 2213.81 1965.81 2213.81 1783.88"/><path class="cls-12" d="M2044,1746.69c4.73,0,8.57.49,8.57,1v286.52c0,.55-3.84,1.07-8.57,1.16s-8.59-.28-8.59-.82V1747.64C2035.44,1747.09,2039.29,1746.67,2044,1746.69Z"/><polygon class="cls-12" points="1977.49 1696.29 2117.66 1695.97 2117.66 1902.65 1977.49 1905.34 1977.49 1696.29"/><path class="cls-12" d="M1809.82,2196.92c4.92,0,8.9.29,8.9.64V2384.9c0,.35-4,.71-8.9.8s-8.92-.14-8.92-.5V2197.58C1800.9,2197.22,1804.89,2196.93,1809.82,2196.92Z"/><polygon class="cls-12" points="1726.94 1965.1 1878.12 1962.98 1878.12 2201.42 1726.94 2206.36 1726.94 1965.1"/><polygon class="cls-12" points="1495.2 2037.55 1638.58 2036.92 1638.58 2174.26 1495.2 2176.55 1495.2 2037.55"/><polygon class="cls-12" points="1253.42 1992.02 1396.85 1987.39 1396.85 2192.14 1253.42 2199.33 1253.42 1992.02"/><path class="cls-12" d="M1077.6,2281.19c4.9-.13,8.87.11,8.87.53v219.84c0,.42-4,1-8.87,1.17s-8.88.07-8.88-.35v-220.2C1068.72,2281.76,1072.7,2281.31,1077.6,2281.19Z"/><polygon class="cls-12" points="1012.42 2366.32 1161.24 2359.67 1161.24 2511.03 1012.42 2519.62 1012.42 2366.32"/><polygon class="cls-12" points="776.62 1977.97 918.95 1974.81 918.95 2115.22 776.62 2120.2 776.62 1977.97"/><path class="cls-13" d="M848.24,2610.72c-5.09.43-9.23-.3-9.23-1.63V1914.68c0-1.33,4.14-2.5,9.23-2.6s9.22.88,9.22,2.2v693.26C857.46,2608.86,853.34,2610.29,848.24,2610.72Z"/><polygon class="cls-14" points="918.95 2381.65 776.62 2391.25 776.62 2113.69 918.95 2107.64 918.95 2381.65"/><path class="cls-15" d="M1093.48,2593c-4.91.43-8.89,0-8.89-.92V2103.85c0-.93,4-1.86,8.89-2.07s8.87.38,8.87,1.31v487.43C1102.35,2591.45,1098.38,2592.55,1093.48,2593Z"/><polygon class="cls-16" points="1161.54 2417.93 1016.4 2427.82 1016.4 2264.45 1161.54 2256.62 1161.54 2417.93"/><path class="cls-17" d="M1328,2673.7c-4.73.55-8.56-.18-8.56-1.64V1908.38c0-1.46,3.83-2.82,8.56-3s8.54.79,8.54,2.25v762.45C1336.5,2671.51,1332.68,2673.14,1328,2673.7Z"/><polygon class="cls-18" points="1396.85 2464.68 1249.81 2477.16 1249.81 2144.32 1396.85 2135.94 1396.85 2464.68"/><path class="cls-19" d="M1560,2485.78c-5.09.72-9.22.55-9.22-.37V2005.15c0-.92,4.13-2.08,9.22-2.58s9.21-.16,9.21.75v479.51C1569.18,2483.75,1565.06,2485.07,1560,2485.78Z"/><polygon class="cls-20" points="1638.57 2266.49 1488.45 2275.38 1488.45 2170.31 1638.57 2162.7 1638.57 2266.49"/><path class="cls-21" d="M1808.9,2107.91c-5,.2-9-.54-9-1.65V1526.7c0-1.11,4.05-2,9-1.92s9,1,9,2.09v578.67C1817.93,2106.65,1813.89,2107.71,1808.9,2107.91Z"/><polygon class="cls-22" points="1878.17 1964.3 1732.99 1968.4 1732.99 1675.84 1878.17 1675.16 1878.17 1964.3"/><path class="cls-23" d="M2044.56,2389.42c-4.7.3-8.51-.69-8.51-2.21v-796.3c0-1.53,3.81-2.74,8.51-2.72s8.5,1.29,8.5,2.81v795.11C2053.06,2387.63,2049.26,2389.11,2044.56,2389.42Z"/><polygon class="cls-24" points="2117.66 2159.3 1974.33 2165.29 1974.33 1806.43 2117.66 1804.57 2117.66 2159.3"/><path class="cls-25" d="M2284.08,2311.77c-4.54.39-8.23-.28-8.23-1.49V1676.19c0-1.22,3.69-2.31,8.23-2.44s8.22.75,8.22,2v633.16C2292.3,2310.08,2288.62,2311.38,2284.08,2311.77Z"/><polygon class="cls-26" points="2357.14 2170.05 2213.81 2177.14 2213.81 1950.45 2357.14 1945.92 2357.14 2170.05"/><path class="cls-27" d="M2525.16,1853.23c-5.15.1-9.32-.5-9.32-1.36V1405c0-.86,4.17-1.5,9.32-1.43s9.31.81,9.31,1.66v446.28C2534.47,1852.33,2530.3,1853.12,2525.16,1853.23Z"/><polygon class="cls-28" points="2596.62 1872.42 2452.92 1875.35 2452.92 1531.96 2596.62 1532.73 2596.62 1872.42"/><path class="cls-29" d="M2764.82,2304.83c-5.13.07-9.3-1-9.3-2.4V1574.3c0-1.39,4.17-2.36,9.3-2.15s9.28,1.51,9.28,2.91v727.12C2774.1,2303.58,2770,2304.76,2764.82,2304.83Z"/><polygon class="cls-30" points="2836.1 2139.62 2692.78 2139.46 2692.78 1868.45 2836.1 1871.48 2836.1 2139.62"/><path class="cls-31" d="M3008.13,1767.83c-5.27.12-9.54-.51-9.54-1.39v-464.3c0-.89,4.27-1.56,9.54-1.51s9.52.82,9.52,1.71V1766C3017.65,1766.9,3013.39,1767.71,3008.13,1767.83Z"/><polygon class="cls-32" points="3081.26 1587.79 2934.24 1589.43 2934.24 1415.99 3081.26 1416.13 3081.26 1587.79"/><circle class="cls-33" cx="2335.47" cy="1247.85" r="574.38" transform="translate(-198.32 2016.91) rotate(-45)"/><circle class="cls-34" cx="2335.46" cy="1247.85" r="555.28" transform="translate(-198.32 2016.91) rotate(-45)"/><path class="cls-1" d="M1877.58,1020.62a3.43,3.43,0,0,1-3-5,516.92,516.92,0,0,1,554-275.44,3.43,3.43,0,0,1-1.22,6.75,514.32,514.32,0,0,0-91.86-8.26c-193.35,0-367.63,107.3-454.82,280A3.44,3.44,0,0,1,1877.58,1020.62Z"/><circle class="cls-35" cx="2347.56" cy="1259.95" r="469.98" transform="translate(-203.34 2029.01) rotate(-45)"/><path class="cls-36" d="M2579.76,1298.2c-23.84-22.17-56.62-35.53-97-40.06a.37.37,0,0,1-.33-.37v-.8a.36.36,0,0,1,.28-.36c32.21-8,49.83-22.34,70.28-42.87s31.5-44.59,31.5-72c0-37.85-17.63-67.18-51.33-88-28.45-17.58-61.13-27.74-108.29-30.47a6,6,0,0,1-5.6-5.93V923.37a6,6,0,0,0-6-6h-43.16a6,6,0,0,0-5.95,6v95a5.94,5.94,0,0,1-5.94,5.95h-49.65a5.94,5.94,0,0,1-5.94-5.95v-95a6,6,0,0,0-5.95-6h-43.17a5.94,5.94,0,0,0-5.94,6v95a6,6,0,0,1-6,5.95H2116a6,6,0,0,0-5.95,6v48a6,6,0,0,0,5.95,6h70.69a5.94,5.94,0,0,1,6,5.94v370.28a6,6,0,0,1-6,6H2116a5.94,5.94,0,0,0-5.95,5.94v54.5a6,6,0,0,0,5.95,6h125.75a6,6,0,0,1,6,6V1637a5.94,5.94,0,0,0,5.94,6h43.17a6,6,0,0,0,5.95-6v-98.22a5.94,5.94,0,0,1,5.94-6h49.65a5.94,5.94,0,0,1,5.94,6V1637a6,6,0,0,0,5.95,6h43.16a6,6,0,0,0,6-6V1537A5.93,5.93,0,0,1,2425,1531c55.74-2.18,102-15.72,135.65-40.66,36.83-27.33,55.08-64.29,55.08-110.9C2615.77,1347.53,2603.66,1320.44,2579.76,1298.2Zm-210.68-189.69c61.64,0,92.47,17.9,92.47,55.28q0,30.17-22.53,47.35t-61.71,17.2h-68.64a5.94,5.94,0,0,1-5.94-5.95V1114.45a5.94,5.94,0,0,1,5.94-5.94ZM2459,1431c-16.59,12.3-39.51,19.21-68.76,19.21h-81.57a5.94,5.94,0,0,1-5.94-5.94V1320.11a5.94,5.94,0,0,1,5.94-5.94H2391c29.25,0,52.05,5.09,68.37,16.68s24.49,29.36,24.49,49.71Q2483.88,1412.5,2459,1431Z"/><path class="cls-37" d="M925.65,3168.8s-5.15,29.11-7.67,57.94a19.86,19.86,0,0,0,19,21.51c38.38,1.6,120.48,4.71,149.94,3.39a6.45,6.45,0,0,0,5.68-8.85h0a14.45,14.45,0,0,0-7.39-7.79l-135.62-62.33Z"/><path class="cls-38" d="M921.43,3151.69l4.13,34.83s23.76,11.06,40-1.4l-9.83-38.81Z"/><path class="cls-39" d="M924.54,2497c-1.79,9.09-9.58,453.84,38,653.15a6.78,6.78,0,0,1-4,7.87,117.89,117.89,0,0,1-38.72,7.87,11.66,11.66,0,0,1-11.56-8.36c-13.59-46.25-78.7-277.93-87.2-499.26-9.49-247.31,0-8.42,0-8.42l5.57-152.87Z"/><path class="cls-40" d="M769.64,3184s-8.18,14.7-16.11,53.76a12.11,12.11,0,0,0,10.66,14.5c12.68,1.25,32.19,2.85,47.81,2.74a12.07,12.07,0,0,0,12-13.47c-1.73-14.26-7.12-37.65-23.78-55.88Z"/><path class="cls-41" d="M762.45,3139.19l9.66,52.67s9.55,7.1,28.43,1.95l-4.61-56.66Z"/><path class="cls-42" d="M736.37,2510.6c-38.88,234.65,8.44,580,24.39,647.55a10.53,10.53,0,0,0,8.51,8c7.13,1.18,18.85,2.15,30.42-1.21a9.66,9.66,0,0,0,6.94-8.9c2.14-54.64-1.71-390.08,34.52-522.65a30.08,30.08,0,0,1,11.61-16.61l70.32-50,5.39-80.81Z"/><path class="cls-43" d="M984.13,2066c-116.52-1.92-245.09,30.6-245.09,30.6C704.31,2299.23,733,2533,733,2533c90.21,23.66,192-14.46,192-14.46,15-84.71,85-323.11,85-323.11,56.93-7.07,103.83-23.49,142.45-45.21-29.46-34.15-43.35-77.6-49.38-103.28C1061.75,2059.73,1020.07,2066.57,984.13,2066Z"/><path class="cls-44" d="M1328.31,1894.34c-11.45-13.82-25.93-7.28-25.93-7.28-17.15,72.43-107.06,131.16-199.43,159.87,6,25.68,19.92,69.13,49.38,103.28C1305.63,2064,1328.31,1894.34,1328.31,1894.34Z"/><path class="cls-45" d="M1325.53,1897.86c1.2,3.81-12.67,9.61-20.84-6-.28-7.46-4.82-39.43-.36-45.51,23.75-32.39,69.8-73,69.8-73,7.78,7.68,1.37,15.22,1.37,15.22l-22.34,23.28c4.67,8.44,10.37,15.57,13,25.78a31.25,31.25,0,0,1-3.12,23c-3.92,7.07-9.27,16.25-14.32,23.44C1339.18,1897.76,1325.53,1897.86,1325.53,1897.86Z"/><path class="cls-46" d="M1343.39,1827,1323,1844.25l-6.39,17.19,18.15,20.13s6.1-34.09,10.64-41.47S1347.61,1829.15,1343.39,1827Z"/><path class="cls-47" d="M783.73,2209.4,739,2096.57S630.2,2170.52,612.3,2264.28c20.57,1.51,58,6.86,94.62,25.36C715,2245.37,783.73,2209.4,783.73,2209.4Z"/><path class="cls-48" d="M878.84,2315.56s-122.19,69.06-163.43,10.09c-8.56-12.24-10.6-24.41-8.49-36-36.63-18.5-74-23.85-94.62-25.36-5.39,28.26-2.54,58.33,14.07,88.71,72.22,132.12,268.64-7.3,268.64-7.3Z"/><path class="cls-49" d="M864.16,2402.93,930.85,2170a6.8,6.8,0,0,1,5.74-4.89c12.09-1.41,47.1-5.37,87.52-8.79,48.7-4.11,105.25-7.45,139-4.61a6.81,6.81,0,0,1,5.57,9.8c-19.22,38.88-98.26,197-137.84,248.82a6.82,6.82,0,0,1-5.5,2.7l-154.73-1.44A6.82,6.82,0,0,1,864.16,2402.93Z"/><path class="cls-12" d="M1031,2136.16l48.35-8a3.47,3.47,0,0,1,3.87,4.51l-4.79,14.5a3.44,3.44,0,0,1-2.83,2.35l-46.53,6.22a3.47,3.47,0,0,1-3.84-4.23l3-12.66A3.48,3.48,0,0,1,1031,2136.16Z"/><path class="cls-12" d="M994.83,2177.1l4-20.75a4.81,4.81,0,0,1,4.23-3.87l97.66-9.91a4.8,4.8,0,0,1,5.14,5.89l-6.21,25.86a4.78,4.78,0,0,1-4.42,3.67l-95.43,4.8A4.79,4.79,0,0,1,994.83,2177.1Z"/><path class="cls-50" d="M880.27,2346.66s-9.29-38.2-5.54-51.75,11-31,35.21-27.11,52.75,14.07,52.75,14.07-1.44,17.65-19.84,12l11.41,8.82s-1.63,14.14-17.17,6.59l10.61,11.7s-6.67,11.61-18.1,4.16S912.69,2351.26,880.27,2346.66Z"/><path class="cls-51" d="M866.1,1971.38,829,2078.6a3.87,3.87,0,0,0,1.77,4.65c10.1,5.59,46.51,21.74,90.39-6.08a18.23,18.23,0,0,0,8.38-13l12-92.8Z"/><path class="cls-52" d="M946.77,1872.09s40.71,76.64,35.49,107.59-55.67,28.74-99.73,3.6l-30.79-82.76Z"/><path class="cls-53" d="M884.48,1942.64a3.16,3.16,0,0,0,1.37-4.63c-3.26-5-9.37-15.14-11.32-24,0,0-7.32-4.69,18.63-10.9s64.64-15.85,72.77-37.94c7.93-21.53-12.91-75.68-46.14-32.54a3.16,3.16,0,0,1-5,0c-5.45-7.09-19.77-21.81-39.66-12.89-18.62,8.35-20.71,22-20.46,28.87a3.13,3.13,0,0,1-3.72,3.21c-9.41-1.79-32-3.34-42.53,19.83-8.68,19.08-3,29.88,2.1,35.17a3.15,3.15,0,0,1-1.35,5.22c-6.18,1.9-14.17,7.14-13.37,21.63,1.11,20,23.5,18.27,29.88,17.35a3.14,3.14,0,0,1,2.8,1c5.47,6,30.1,31.74,56.76,34.83a3.19,3.19,0,0,0,3.35-4.21L877,1949.11a3.18,3.18,0,0,1,1.71-3.94Z"/><path class="cls-54" d="M889.11,1947.4s-29-19.89-31.1-3.14,26.1,24.26,40.08,18Z"/><rect class="cls-55" x="2772.11" y="2905.17" width="24.22" height="261.88"/><path class="cls-56" d="M2680.79,3156.34h206.86a2.62,2.62,0,0,1,2.62,2.62v13.14a0,0,0,0,1,0,0h-212.1a0,0,0,0,1,0,0V3159A2.62,2.62,0,0,1,2680.79,3156.34Z"/><rect class="cls-57" x="2655.07" y="2846.49" width="266.67" height="75.63" rx="26.04"/><path class="cls-58" d="M2605.44,2730.56s-36,5.57-76.44,32.62a20.16,20.16,0,0,0-8.9,19.27c4.85,38.38,24.77,162.58,90.45,283.89a30.57,30.57,0,0,1,2.93,21l-11.41,53.1-21.17,19.85h54.51l36.3-98.22-15.52-4.91a29.35,29.35,0,0,1-20.51-27.49l-1.82-105.36c1.55-46.93-28.78-79.32-28.78-79.32l87.05-4.24Z"/><path class="cls-59" d="M2559.62,3169.83c-5,6.49,53.43,15.07,82.93.86,0,0,40.9-71.16,40.9-107.79,0,0-3.25-7.47-27.26-5.78,0,0-13.73,84.25-28.23,93.69s-40.57,1-40.57,1S2566.94,3160.24,2559.62,3169.83Z"/><path class="cls-60" d="M2681.12,2846.49c-.47-.8-93.73-11.21-93.73-11.21s3.05,28.36-6.49,67.39-146.46,208.16-146.46,208.16l14.36,45.51c-44.4,15.46-88.06,17.94-131,7.88l89-53.39S2490,2827.05,2541,2776.42l93.48-32.34Z"/><path class="cls-61" d="M2890.27,2681.37s53.73,79.92,58.14,116.38-14.72,51.27-71.1,53.71-206.89,2.4-206.89,2.4L2542,2744.08s93.61-33.4,118-42.85S2890.27,2681.37,2890.27,2681.37Z"/><path class="cls-62" d="M2443.37,3141s15.46,15,5,31.63c0,0-122.45,21.71-155.7,11.86,0,0,6.91-15.76,44.34-33.69l-2.76,2.12a4.47,4.47,0,0,0,2.95,8C2361.89,3159.54,2412.94,3155,2443.37,3141Z"/><path class="cls-63" d="M2745,2670.79s-62.58-59.58-93.38-99a83.73,83.73,0,0,1-14.17-75.36c14.06-47.37,39.05-96.44,41.33-104.08,3.49-11.7,73.65-11.21,73.65-11.21s138.06,89.6,192.3,241.37l-60.92,19s-36-60.48-71.66-98.92c0,0,61.63,81.41,63.8,114.74Z"/><path class="cls-64" d="M2670.25,2326.89c.74,2.44,19.05,63.14,20.48,64.4s40.16,3.35,58.39-9.11l-30.93-64.74Z"/><path class="cls-65" d="M2700.33,2199.39s-33.06,14-55.53,61.73-5.7,69.82,15.39,72.85,52.62,2.57,86-28.29S2743.31,2182.84,2700.33,2199.39Z"/><path class="cls-66" d="M2723.74,2280.18s24.94-69.89-37-70.72l-14.59,10.19s-22.73-38.75,14.59-57.25,93-2,108.87,48.25,6.59,82.74-19.83,106.79-37.31-3.22-37.31-3.22,14.39-22.5,8.53-34.53-19.37,2.49-19.37,2.49Z"/><path class="cls-67" d="M2730.69,2288s12.61-36,29.43-21.66-13.67,33.25-25.61,39.38Z"/><path class="cls-68" d="M2617.48,2675.22l46-44.31,63.59,26.86s63.3,9.81,99.54,0l36.23-9.81,81.87-25.49,12.86,36.35a21.87,21.87,0,0,1-8,25.13c-7.09,5-15.39,10.57-20.68,12.88-10.78,4.72-265.79-3.26-265.79-3.26Z"/><path class="cls-69" d="M2790.73,2218.53c-8-8.14-2.79-21.89,8.47-23.64,36.32-5.67,91.71.11,115,77.87,26.2,87.59,43.26,131.39,60.77,139.07,11.49,5.05,12.23,21,.78,26.15-8.47,3.8-20.59,5.15-37.95,1.34C2803.92,2409.87,2837.46,2266.27,2790.73,2218.53Z"/><path class="cls-70" d="M2791.46,2696.11h-.62l-266.67-.29a11.94,11.94,0,1,1,0-23.87l266.68.29a11.94,11.94,0,0,1,.59,23.86Z"/><path class="cls-71" d="M2284.44,2454h222.09a42.32,42.32,0,0,1,38.28,24.27L2647.48,2696h-276a25.73,25.73,0,0,1-23.92-16.27l-79.62-201.45A17.74,17.74,0,0,1,2284.44,2454Z"/><path class="cls-5" d="M2440.9,2565.61c4.81,14.95,1.26,29.47-7.94,32.43s-20.56-6.76-25.37-21.71-1.26-29.48,7.94-32.44S2436.09,2550.65,2440.9,2565.61Z"/><path class="cls-12" d="M3164.19,2705.85a9.88,9.88,0,0,0-2.32-8.53,11.32,11.32,0,0,0-8.49-3.75H2040.55a12.89,12.89,0,0,0-10.67,5.48,11.22,11.22,0,0,0-.83,11.37l12.06,24.47a17,17,0,0,0,15.33,9.19h1089.3a12.61,12.61,0,0,0,12.56-9.71Z"/><path class="cls-12" d="M2102.92,3221.5a9.47,9.47,0,0,1-3.86-.82,10.07,10.07,0,0,1-5.11-13.12l204.82-487.16a9.7,9.7,0,0,1,12.83-5.23,10.09,10.09,0,0,1,5.11,13.13L2111.9,3215.46A9.77,9.77,0,0,1,2102.92,3221.5Z"/><path class="cls-12" d="M2333.65,3221.5a9.76,9.76,0,0,1-9-6L2119.86,2728.3a10.09,10.09,0,0,1,5.11-13.13,9.68,9.68,0,0,1,12.83,5.23l204.82,487.16a10.07,10.07,0,0,1-5.11,13.12A9.47,9.47,0,0,1,2333.65,3221.5Z"/><path class="cls-12" d="M2909.46,3221.5a9.42,9.42,0,0,1-3.85-.82,10.06,10.06,0,0,1-5.11-13.12l204.81-487.16a9.7,9.7,0,0,1,12.83-5.23,10.07,10.07,0,0,1,5.11,13.13l-204.81,487.16A9.76,9.76,0,0,1,2909.46,3221.5Z"/><path class="cls-12" d="M3140.2,3221.5a9.76,9.76,0,0,1-9-6L2926.4,2728.3a10.09,10.09,0,0,1,5.11-13.13,9.7,9.7,0,0,1,12.84,5.23l204.81,487.16a10.07,10.07,0,0,1-5.11,13.12A9.46,9.46,0,0,1,3140.2,3221.5Z"/></g></svg>